<svg id="Layer_1" enable-background="new 0 0 68 68" viewBox="0 0 68 68" xmlns="http://www.w3.org/2000/svg"><g><g><g><path d="m56.18 26.93v29.77c0 2.35-1.91 4.26-4.26 4.26h-14.87c-1.27 0-2.39.76-2.99 1.88-.92 1.72-2.74 2.88-4.82 2.88s-3.9-1.16-4.82-2.88c-.6-1.12-1.71-1.88-2.99-1.88h-14.86c-2.35 0-4.26-1.91-4.26-4.26v-29.77c0-2.35 1.91-4.26 4.26-4.26h45.34c2.36 0 4.27 1.91 4.27 4.26z" fill="#54e28e"/><path d="m29.25 66.23c-2.2 0-4.22-1.21-5.26-3.15-.54-1.01-1.5-1.62-2.55-1.62h-14.87c-2.62 0-4.76-2.13-4.76-4.76v-29.77c0-2.62 2.13-4.76 4.76-4.76h45.34c2.62 0 4.76 2.13 4.76 4.76v29.77c0 2.62-2.13 4.76-4.76 4.76h-14.86c-1.05 0-2 .6-2.55 1.62-1.04 1.94-3.05 3.15-5.25 3.15zm-22.68-43.06c-2.07 0-3.76 1.69-3.76 3.76v29.77c0 2.07 1.69 3.76 3.76 3.76h14.87c1.41 0 2.72.82 3.43 2.14.87 1.62 2.54 2.62 4.38 2.62s3.51-1 4.38-2.62c.71-1.32 2.02-2.14 3.43-2.14h14.87c2.07 0 3.76-1.69 3.76-3.76v-29.77c0-2.07-1.69-3.76-3.76-3.76z" fill="#000100"/></g><g><g><path d="m6.48 43.43v10.58c0 1.45 1.18 2.63 2.63 2.63h20.13v-13.21z" fill="#e2e2e0"/><path d="m29.25 57.14h-20.14c-1.73 0-3.13-1.41-3.13-3.13v-10.58c0-.28.22-.5.5-.5h22.76c.28 0 .5.22.5.5v13.21c.01.28-.22.5-.49.5zm-22.27-13.21v10.08c0 1.18.96 2.13 2.13 2.13h19.63v-12.21z" fill="#000100"/></g><g><path d="m29.25 43.43v13.21h20.13c1.45 0 2.63-1.18 2.63-2.63v-10.58z" fill="#e2e2e0"/><path d="m49.38 57.14h-20.13c-.28 0-.5-.22-.5-.5v-13.21c0-.28.22-.5.5-.5h22.76c.28 0 .5.22.5.5v10.58c0 1.73-1.41 3.13-3.13 3.13zm-19.63-1h19.63c1.18 0 2.13-.96 2.13-2.13v-10.08h-21.76z" fill="#000100"/></g></g><g><g><path d="m6.48 49.42v-27.7c0-1.73 1.4-3.13 3.13-3.13h12.85c3.75 0 6.78 3.04 6.78 6.78v27.17h-19.63c-1.73 0-3.13-1.4-3.13-3.12z" fill="#efefed"/><path d="m29.25 53.04h-19.64c-2 0-3.63-1.63-3.63-3.63v-27.7c0-2 1.63-3.63 3.63-3.63h12.85c4.02 0 7.28 3.27 7.28 7.28v27.17c.01.29-.22.51-.49.51zm-19.64-33.95c-1.45 0-2.63 1.18-2.63 2.63v27.7c0 1.45 1.18 2.63 2.63 2.63h19.14v-26.68c0-3.46-2.82-6.28-6.28-6.28z" fill="#000100"/></g><g><path d="m29.25 52.54v-27.17c0-3.75 3.04-6.78 6.78-6.78h12.85c1.73 0 3.13 1.4 3.13 3.13v27.7c0 1.73-1.4 3.13-3.13 3.13h-19.63z" fill="#efefed"/><path d="m48.88 53.04h-19.63c-.28 0-.5-.22-.5-.5v-27.17c0-4.02 3.27-7.28 7.28-7.28h12.85c2 0 3.63 1.63 3.63 3.63v27.7c0 2-1.63 3.62-3.63 3.62zm-19.13-1h19.14c1.45 0 2.63-1.18 2.63-2.63v-27.7c0-1.45-1.18-2.63-2.63-2.63h-12.86c-3.46 0-6.28 2.82-6.28 6.28z" fill="#000100"/></g></g><g><g><path d="m24.7 24.86h-13.67c-.28 0-.5-.22-.5-.5s.22-.5.5-.5h13.67c.28 0 .5.22.5.5s-.22.5-.5.5z" fill="#000100"/></g><g><path d="m24.7 30.46h-13.67c-.28 0-.5-.22-.5-.5s.22-.5.5-.5h13.67c.28 0 .5.22.5.5s-.22.5-.5.5z" fill="#000100"/></g><g><path d="m24.7 36.07h-13.67c-.28 0-.5-.22-.5-.5s.22-.5.5-.5h13.67c.28 0 .5.22.5.5s-.22.5-.5.5z" fill="#000100"/></g><g><path d="m24.7 41.67h-13.67c-.28 0-.5-.22-.5-.5s.22-.5.5-.5h13.67c.28 0 .5.22.5.5s-.22.5-.5.5z" fill="#000100"/></g><g><path d="m18.98 47.27h-7.95c-.28 0-.5-.22-.5-.5s.22-.5.5-.5h7.95c.28 0 .5.22.5.5s-.23.5-.5.5z" fill="#000100"/></g></g><g><g><path d="m39.94 24.86h-6.15c-.28 0-.5-.22-.5-.5s.22-.5.5-.5h6.15c.28 0 .5.22.5.5s-.22.5-.5.5z" fill="#000100"/></g><g><path d="m39.94 30.46h-6.15c-.28 0-.5-.22-.5-.5s.22-.5.5-.5h6.15c.28 0 .5.22.5.5s-.22.5-.5.5z" fill="#000100"/></g><g><path d="m39.63 36.07h-5.84c-.28 0-.5-.22-.5-.5s.22-.5.5-.5h5.84c.28 0 .5.22.5.5s-.22.5-.5.5z" fill="#000100"/></g><g><path d="m45.74 41.67h-11.95c-.28 0-.5-.22-.5-.5s.22-.5.5-.5h11.95c.28 0 .5.22.5.5s-.23.5-.5.5z" fill="#000100"/></g><g><path d="m41.28 47.27h-7.49c-.28 0-.5-.22-.5-.5s.22-.5.5-.5h7.49c.28 0 .5.22.5.5s-.22.5-.5.5z" fill="#000100"/></g></g></g><g><g><g><path d="m62.13 21.16c.09.26.06.55-.08.79-3.68 6.01-9.81 9.48-13.12 11.01-1.17.54-2.51-.23-2.64-1.51-.18-1.76-.3-4.3 0-7.17.04-.4.34-.72.73-.8l.4-.08c.74-.15.99-1.08.43-1.58l-.62-.55c-.25-.22-.36-.57-.29-.89.51-2.12 1.29-4.3 2.47-6.36 1.48-2.6 3.43-4.74 5.45-6.47.32-.28.79-.29 1.13-.04l1.42 1.04c.61.45 1.47 0 1.46-.75l-.04-2.63c0-.32.16-.63.44-.8 1.35-.82 2.59-1.45 3.58-1.91 1.17-.53 2.51.23 2.64 1.51.3 3.01.44 8.37-1.43 13.66-.16.46-.67.7-1.14.55l-.33-.11c-.72-.23-1.39.46-1.15 1.17z" fill="#fbe063"/><path d="m48.14 33.64c-.4 0-.8-.11-1.17-.31-.67-.38-1.1-1.05-1.18-1.82-.17-1.69-.3-4.32 0-7.27.06-.61.53-1.12 1.13-1.24l.4-.08c.23-.05.3-.22.32-.3.02-.07.05-.26-.13-.42l-.62-.55c-.39-.35-.56-.88-.44-1.38.56-2.37 1.41-4.55 2.52-6.49 1.36-2.38 3.23-4.6 5.56-6.6.5-.43 1.22-.45 1.75-.06l1.42 1.04c.19.14.37.07.44.03s.23-.14.23-.38l-.04-2.63c-.01-.5.25-.97.68-1.23 1.19-.72 2.41-1.37 3.63-1.93.71-.32 1.49-.29 2.17.1.67.38 1.1 1.05 1.18 1.82.28 2.84.47 8.42-1.45 13.88-.25.71-1.04 1.1-1.77.86l-.33-.11c-.22-.07-.37.05-.43.1-.05.06-.17.21-.1.43l.7 1.9c.14.41.09.85-.13 1.21-3.73 6.1-9.95 9.63-13.33 11.2-.33.15-.67.23-1.01.23zm7.32-25.82c-.09 0-.19.03-.26.09-2.24 1.93-4.04 4.06-5.34 6.34-1.06 1.86-1.88 3.96-2.42 6.23-.04.15.02.3.13.4l.62.55c.4.36.57.91.42 1.43-.14.52-.56.91-1.09 1.02l-.4.08c-.18.04-.32.18-.33.36-.3 2.87-.17 5.43 0 7.07.05.45.29.83.68 1.05s.84.24 1.25.05c3.28-1.52 9.31-4.94 12.9-10.81.07-.11.08-.24.04-.36l-.67-1.92c-.18-.51-.05-1.07.33-1.46s.93-.53 1.45-.36l.33.11c.22.07.45-.04.52-.24 1.86-5.28 1.67-10.69 1.4-13.45-.05-.44-.3-.83-.68-1.05-.39-.22-.84-.24-1.25-.06-1.19.55-2.38 1.18-3.53 1.88-.12.08-.2.21-.2.36l.04 2.63c.01.54-.29 1.03-.77 1.28s-1.05.2-1.49-.12l-1.43-1.02c-.07-.06-.16-.08-.25-.08z" fill="#000100"/></g><g><g><path d="m45.02 41.02c-.3-.17-.51-.47-.56-.83-1.05-7.79 10.78-22.11 11.28-22.71.4-.48 1.11-.55 1.59-.15s.55 1.11.15 1.59c-3.26 3.92-11.54 15.31-10.78 20.96.08.62-.35 1.19-.97 1.27-.25.04-.5-.01-.71-.13z" fill="#f9a41a"/><path d="m45.58 41.67c-.28 0-.56-.07-.81-.21-.45-.25-.74-.69-.81-1.2-1.06-7.85 10.12-21.56 11.39-23.1.58-.69 1.61-.79 2.3-.21s.79 1.61.21 2.3c-4.46 5.37-11.31 15.71-10.66 20.57.12.89-.51 1.72-1.4 1.84-.07 0-.14.01-.22.01zm-.31-1.08c.12.07.26.09.4.08.17-.02.32-.11.42-.24s.15-.3.12-.47c-.79-5.83 7.59-17.39 10.89-21.35.22-.27.19-.67-.08-.89s-.67-.19-.89.08c-.5.6-12.19 14.77-11.17 22.33.03.19.14.36.31.46z" fill="#000100"/></g></g></g></g></g></svg>