<svg id="Layer_1" enable-background="new 0 0 132 132" viewBox="0 0 132 132" xmlns="http://www.w3.org/2000/svg"><g><g><g><g><path d="m35.26 14.13-21.64 1.38c-3.4.22-5.99 3.16-5.77 6.56l5.37 84.22c.22 3.4 3.16 5.99 6.56 5.77l21.64-1.38z" fill="#003ed3"/></g><g><path d="m17.21 112.18c-.06 0-.12-.01-.18-.03-2.45-.93-4.14-3.21-4.31-5.82l-3.6-56.46c-.02-.28.19-.51.47-.53.27-.02.51.19.53.47l3.6 56.46c.14 2.22 1.58 4.16 3.66 4.95.26.1.39.39.29.65-.07.19-.26.31-.46.31z"/></g><g><path d="m8.7 35.87c-.26 0-.48-.2-.5-.47l-.85-13.29c-.21-3.29 1.97-6.21 5.18-6.94.27-.06.54.11.6.38s-.11.54-.38.6c-2.73.62-4.58 3.1-4.41 5.9l.86 13.29c.02.28-.19.51-.47.53-.01 0-.02 0-.03 0z"/></g><g><path d="m94.89 16.52 5.37 84.22c.22 3.4-2.37 6.34-5.77 6.56l-67.72 4.32c-3.4.22-6.34-2.37-6.56-5.77l-5.37-84.22c-.22-3.4 2.37-6.34 5.77-6.56l67.72-4.32c3.4-.22 6.34 2.37 6.56 5.77z" fill="#158ed8"/></g><g><path d="m94.89 16.52 5.37 84.22c.22 3.4-2.37 6.34-5.77 6.56l-67.72 4.32c-1.51.1-2.93-.36-4.06-1.19l69.5-98.62c1.51 1.04 2.56 2.74 2.68 4.71z" fill="#015ed4"/></g><g><path d="m26.37 112.13c-1.62 0-3.17-.58-4.4-1.67-1.34-1.18-2.14-2.81-2.25-4.59l-5.37-84.22c-.11-1.78.47-3.5 1.65-4.84s2.81-2.14 4.59-2.25l67.72-4.32c3.69-.23 6.86 2.56 7.09 6.24l5.37 84.22c.23 3.68-2.57 6.86-6.24 7.09l-67.72 4.32c-.16.02-.3.02-.44.02zm62.36-100.9c-.12 0-.24 0-.37.01l-67.72 4.32c-1.51.1-2.9.78-3.9 1.92s-1.5 2.6-1.41 4.11l5.37 84.22c.1 1.51.78 2.9 1.92 3.9s2.6 1.5 4.11 1.41l67.72-4.32c3.13-.2 5.51-2.9 5.31-6.03l-5.37-84.22c-.19-3-2.69-5.32-5.66-5.32z"/></g><g><path d="m15.17 27.07h84.75v68.22h-84.75z" fill="#fff" transform="matrix(.064 .998 -.998 .064 114.946 -.143)"/></g><g><path d="m23.5 20.87h3.61v84.75h-3.61z" fill="#fadfcb" transform="matrix(.998 -.064 .064 .998 -3.975 1.74)"/></g><g><path d="m87.79 16.76h3.61v84.75h-3.61z" fill="#fadfcb" transform="matrix(.998 -.064 .064 .998 -3.584 5.825)"/></g><g><path d="m26.21 106.15c-.12 0-.24-.04-.33-.12-.1-.09-.16-.21-.17-.34l-5.4-84.58c-.01-.13.04-.26.12-.36.09-.1.21-.16.34-.17l68.08-4.34c.29-.01.51.19.53.47l5.4 84.58c.01.13-.04.26-.12.36-.09.1-.21.16-.34.17l-68.08 4.34c-.01-.01-.02-.01-.03-.01zm-4.87-84.62 5.33 83.58 67.08-4.28-5.33-83.58z"/></g><g><path d="m69.57 21.54-28.48 1.82c-1.81.12-3.25-1.5-2.93-3.27l1.23-6.87c.23-1.26 1.29-2.22 2.57-2.3l4.1-.26c1.05-.07 2-.71 2.39-1.68.76-1.92 3.03-3.39 5.8-3.57s5.2 1 6.21 2.8c.51.92 1.53 1.43 2.58 1.37l4.1-.26c1.28-.08 2.45.73 2.84 1.95l2.09 6.65c.53 1.73-.69 3.51-2.5 3.62z" fill="#ffc378"/></g><g><path d="m40.65 19.93c-.32 1.77 1.13 3.39 2.93 3.27l-2.49.16c-1.81.12-3.25-1.5-2.93-3.27l1.23-6.87c.22-1.26 1.28-2.22 2.56-2.3l2.49-.16c-1.28.08-2.34 1.04-2.56 2.3z" fill="#ffab41"/></g><g><path d="m55.49 5.42c-2.18.47-3.91 1.78-4.55 3.4-.4.99-1.34 1.62-2.4 1.69l-2.49.16c1.06-.07 2-.7 2.4-1.69.76-1.91 3.03-3.39 5.79-3.57.43-.03.84-.03 1.25.01z" fill="#ffab41"/></g><g><path d="m40.9 23.87c-.94 0-1.82-.39-2.46-1.1-.67-.76-.96-1.77-.78-2.77l1.23-6.87c.27-1.5 1.51-2.61 3.03-2.71l4.1-.26c.88-.06 1.65-.59 1.96-1.37.85-2.14 3.35-3.7 6.23-3.88 2.87-.19 5.56 1.05 6.67 3.06.41.73 1.25 1.17 2.12 1.11l4.1-.26c1.52-.1 2.89.85 3.35 2.3l2.09 6.65c.3.97.15 2-.43 2.84s-1.49 1.36-2.51 1.43l-5.46.35c-.28 0-.51-.19-.53-.47s.19-.51.47-.53l5.46-.35c.71-.05 1.35-.41 1.75-.99s.51-1.3.3-1.98l-2.09-6.65c-.32-1.01-1.28-1.68-2.33-1.6l-4.1.26c-1.26.08-2.46-.56-3.05-1.62-.93-1.68-3.23-2.71-5.74-2.55-2.5.16-4.66 1.47-5.37 3.26-.45 1.13-1.56 1.92-2.82 2l-4.1.26c-1.05.07-1.92.84-2.11 1.89l-1.23 6.87c-.12.69.08 1.4.55 1.92.47.53 1.15.81 1.86.76l16.85-1.07c.27-.01.51.19.53.47s-.19.51-.47.53l-16.85 1.07c-.07-.01-.15 0-.22 0z"/></g><g><path d="m47.33 16.37c-.26 0-.48-.2-.5-.47-.02-.28.19-.51.47-.53l15.43-.98c.27-.02.51.19.53.47s-.19.51-.47.53l-15.43.98c-.01 0-.02 0-.03 0z"/></g><g><g><path d="m51.56 33.88c-.26 0-.48-.2-.5-.47-.02-.28.19-.51.47-.53l30.47-1.95c.28-.01.51.19.53.47s-.19.51-.47.53l-30.46 1.94c-.01 0-.02.01-.04.01z"/></g><g><path d="m51.9 39.2c-.26 0-.48-.2-.5-.47-.02-.28.19-.51.47-.53l30.47-1.94c.29-.02.51.19.53.47s-.19.51-.47.53l-30.46 1.94c-.01 0-.02 0-.04 0z"/></g><g><path d="m52.24 44.52c-.26 0-.48-.2-.5-.47-.02-.28.19-.51.47-.53l18.83-1.2c.3-.01.51.19.53.47s-.19.51-.47.53l-18.83 1.2s-.02 0-.03 0z"/></g></g><g><g><g><path d="m53.02 56.63c-.26 0-.48-.2-.5-.47-.02-.28.19-.51.47-.53l24.73-1.58c.3-.02.51.19.53.47s-.19.51-.47.53l-24.73 1.58c-.01 0-.02 0-.03 0z"/></g><g><path d="m53.36 61.95c-.26 0-.48-.2-.5-.47-.02-.28.19-.51.47-.53l24.73-1.58c.3-.02.51.19.53.47s-.19.51-.47.53l-24.73 1.58c-.01 0-.02 0-.03 0z"/></g><g><path d="m53.7 67.28c-.26 0-.48-.2-.5-.47-.02-.28.19-.51.47-.53l18.83-1.2c.3-.02.51.19.53.47s-.19.51-.47.53l-18.83 1.2c-.01-.01-.02 0-.03 0z"/></g></g></g><g><g><g><path d="m54.47 79.38c-.26 0-.48-.2-.5-.47-.02-.28.19-.51.47-.53l30.47-1.94c.3-.01.51.19.53.47s-.19.51-.47.53l-30.47 1.94c-.01 0-.02 0-.03 0z"/></g><g><path d="m54.81 84.71c-.26 0-.48-.2-.5-.47-.02-.28.19-.51.47-.53l30.47-1.94c.3-.01.51.19.53.47s-.19.51-.47.53l-30.47 1.94c-.01 0-.02 0-.03 0z"/></g><g><path d="m55.15 90.03c-.26 0-.48-.2-.5-.47-.02-.28.19-.51.47-.53l18.83-1.2c.31-.01.51.19.53.47s-.19.51-.47.53l-18.83 1.2c-.01 0-.02 0-.03 0z"/></g></g></g><g><g><path d="m44.29 39.18c.13 2-.57 3.85-1.8 5.26-1.22 1.39-2.98 2.31-4.97 2.44-4 .26-7.44-2.78-7.7-6.77-.13-2 .57-3.85 1.79-5.25 1.22-1.39 2.99-2.31 4.98-2.44 2-.13 3.85.57 5.24 1.79 1.41 1.22 2.33 2.98 2.46 4.97z" fill="#ff7d83"/></g><g><path d="m44.29 39.18c.13 2-.57 3.85-1.8 5.26-1.22 1.39-2.98 2.31-4.97 2.44-1.86.12-3.59-.47-4.94-1.54l8.29-11.85c.34.21.67.45.97.71 1.4 1.23 2.32 2.98 2.45 4.98z" fill="#ff5671"/></g><g><path d="m37.04 47.4c-1.89 0-3.68-.68-5.11-1.93-1.55-1.37-2.48-3.26-2.61-5.32s.55-4.05 1.91-5.62c1.37-1.55 3.26-2.48 5.33-2.61 2.06-.13 4.05.55 5.61 1.91 1.56 1.37 2.49 3.26 2.62 5.33.13 2.06-.55 4.06-1.92 5.62-1.37 1.55-3.25 2.48-5.32 2.61-.17 0-.34.01-.51.01zm.02-14.5c-.15 0-.29 0-.44.01-1.8.12-3.45.92-4.64 2.27-1.19 1.36-1.78 3.1-1.67 4.89.11 1.8.92 3.45 2.27 4.64s3.09 1.78 4.89 1.67 3.44-.92 4.63-2.27c1.2-1.36 1.79-3.1 1.68-4.89-.11-1.8-.93-3.44-2.28-4.64-1.23-1.1-2.8-1.68-4.44-1.68z"/></g><g><path d="m36.08 42.13c-.12 0-.24-.04-.33-.12l-1.73-1.52c-.21-.18-.23-.5-.04-.71.18-.21.5-.23.71-.04l1.35 1.19 3.25-3.69c.18-.21.5-.23.71-.05s.23.5.05.71l-3.58 4.07c-.09.1-.21.16-.34.17-.03-.01-.04-.01-.05-.01z"/></g></g><g><g><path d="m45.74 61.94c.13 2-.57 3.85-1.8 5.26-1.22 1.39-2.98 2.31-4.97 2.44-4 .26-7.44-2.78-7.7-6.77-.13-2 .57-3.85 1.79-5.25 1.22-1.39 2.99-2.31 4.98-2.44 2-.13 3.85.57 5.24 1.79 1.41 1.22 2.33 2.97 2.46 4.97z" fill="#ff7d83"/></g><g><path d="m45.74 61.93c.13 2-.57 3.85-1.8 5.26-1.22 1.39-2.98 2.31-4.97 2.44-1.86.12-3.59-.47-4.94-1.54l8.29-11.85c.34.21.67.45.97.71 1.4 1.23 2.33 2.99 2.45 4.98z" fill="#ff5671"/></g><g><path d="m38.49 70.15c-1.89 0-3.68-.68-5.11-1.93-1.55-1.37-2.48-3.26-2.61-5.32s.55-4.05 1.91-5.62c1.37-1.55 3.26-2.48 5.33-2.61 2.06-.13 4.06.55 5.61 1.91 1.56 1.37 2.49 3.26 2.62 5.33.13 2.06-.55 4.06-1.92 5.62-1.37 1.55-3.26 2.47-5.32 2.6-.17.01-.34.02-.51.02zm.02-14.5c-.15 0-.29 0-.44.01-1.8.12-3.45.92-4.64 2.27-1.19 1.36-1.78 3.1-1.67 4.89.11 1.8.92 3.44 2.27 4.64 1.35 1.19 3.08 1.79 4.89 1.67 1.8-.11 3.44-.92 4.63-2.27 1.2-1.36 1.79-3.1 1.68-4.89-.11-1.8-.93-3.44-2.28-4.64-1.23-1.09-2.8-1.68-4.44-1.68z"/></g><g><path d="m37.53 64.88c-.12 0-.24-.04-.33-.12l-1.73-1.52c-.21-.18-.23-.5-.04-.71.18-.21.5-.23.71-.04l1.35 1.19 3.25-3.69c.18-.21.5-.23.71-.05s.23.5.05.71l-3.58 4.07c-.09.1-.21.16-.34.17-.03-.01-.04-.01-.05-.01z"/></g></g><g><g><path d="m47.19 84.69c.13 2-.57 3.85-1.8 5.26-1.22 1.39-2.98 2.31-4.97 2.44-4 .26-7.44-2.78-7.7-6.77-.13-2 .57-3.85 1.79-5.25 1.22-1.39 2.99-2.31 4.98-2.44 2-.13 3.85.57 5.24 1.79 1.41 1.22 2.34 2.98 2.46 4.97z" fill="#ff7d83"/></g><g><path d="m47.19 84.69c.13 2-.57 3.85-1.8 5.26-1.22 1.39-2.98 2.31-4.97 2.44-1.86.12-3.59-.47-4.94-1.54l8.29-11.85c.34.21.67.45.97.71 1.4 1.23 2.33 2.98 2.45 4.98z" fill="#ff5671"/></g><g><path d="m39.95 92.9c-4.05 0-7.47-3.16-7.73-7.26-.13-2.06.55-4.05 1.91-5.62 1.37-1.55 3.26-2.48 5.33-2.61 2.06-.13 4.06.55 5.61 1.91 1.56 1.37 2.49 3.26 2.62 5.33.13 2.06-.55 4.06-1.92 5.62-1.37 1.55-3.25 2.48-5.32 2.61-.17.02-.33.02-.5.02zm.02-14.5c-.15 0-.29 0-.44.01-1.8.12-3.45.92-4.64 2.27-1.19 1.36-1.78 3.1-1.67 4.89.24 3.71 3.46 6.55 7.17 6.31 1.8-.11 3.44-.92 4.63-2.27 1.2-1.36 1.79-3.1 1.68-4.89-.11-1.8-.93-3.44-2.28-4.64-1.25-1.09-2.81-1.68-4.45-1.68z"/></g><g><path d="m38.98 87.64c-.12 0-.24-.04-.33-.12l-1.73-1.52c-.21-.18-.23-.5-.04-.71.18-.21.5-.23.71-.04l1.35 1.19 3.25-3.69c.18-.21.5-.23.71-.05s.23.5.05.71l-3.58 4.07c-.09.1-.21.16-.34.17-.03-.01-.04-.01-.05-.01z"/></g></g></g><g><g><path d="m83.53 31.38h36.32v16.74h-36.32z" fill="#ff7d83" transform="matrix(.49 -.872 .872 .49 17.205 108.903)"/></g><g><path d="m77.48 34.91h36.32v2.87h-36.32z" fill="#ff5671" transform="matrix(.49 -.872 .872 .49 17.085 101.899)"/></g><g><path d="m89.59 41.72h36.32v2.87h-36.32z" fill="#ff5671" transform="matrix(.49 -.872 .872 .49 17.325 115.924)"/></g><g><path d="m123.7 17.69-3.04 5.4-14.61-8.21 3.04-5.4c1.39-2.47 4.52-3.34 6.99-1.96l5.67 3.19c2.46 1.38 3.34 4.51 1.95 6.98z" fill="#158ed8"/></g><g><path d="m113.92 6.89c-1.91-.13-3.82.81-4.82 2.59l-3.04 5.4 2.56 1.44z" fill="#015ed4"/></g><g><path d="m123.4 12.22c1.1 1.57 1.3 3.69.3 5.47l-3.04 5.4-2.56-1.44z" fill="#015ed4"/></g><g><path d="m109.14 13.07h5.66v16.77h-5.66z" fill="#fadfcb" transform="matrix(.49 -.872 .872 .49 38.395 108.541)"/></g><g><path d="m109.14 15.93h5.66v11.04h-5.66z" fill="#fff" transform="matrix(.49 -.872 .872 .49 38.395 108.541)"/></g><g><path d="m100.09 59.68-15.61 10.66 1.01-18.88z" fill="#ffc378"/></g><g><path d="m86.59 68.91-2.11 1.43 1.01-18.88 1.96 1.1z" fill="#ffab41"/></g><g><path d="m100.08 60.18c-.08 0-.17-.02-.25-.06l-14.59-8.2c-.12-.06-.2-.17-.24-.3s-.02-.26.05-.38l17.8-31.66c.13-.24.44-.33.68-.19l14.59 8.2c.24.14.33.44.19.68l-5.24 9.33c-.14.24-.44.33-.68.19s-.33-.44-.19-.68l5-8.89-13.72-7.71-17.31 30.77 13.72 7.72 8.9-15.83c.13-.24.44-.33.68-.19s.33.44.19.68l-9.14 16.26c-.09.16-.26.26-.44.26z"/></g><g><path d="m120.66 23.59c-.08 0-.17-.02-.25-.06l-14.6-8.21c-.12-.07-.2-.17-.24-.3s-.02-.26.05-.38l3.04-5.4c.74-1.31 1.94-2.26 3.39-2.66s2.97-.22 4.28.51l5.67 3.18c2.71 1.52 3.67 4.96 2.15 7.66l-3.04 5.4c-.11.17-.27.26-.45.26zm-13.92-8.9 13.73 7.72 2.79-4.97c1.25-2.22.46-5.05-1.77-6.3l-5.67-3.18c-1.08-.61-2.33-.76-3.52-.42-1.19.33-2.18 1.11-2.79 2.19z"/></g><g><path d="m117.9 28.53c-.08 0-.17-.02-.25-.06l-14.62-8.22c-.12-.07-.2-.17-.24-.3s-.02-.26.05-.38l2.77-4.93c.06-.12.17-.2.3-.24s.26-.02.38.05l14.62 8.22c.24.14.33.44.19.68l-2.77 4.93c-.06.12-.17.2-.3.24-.04 0-.09.01-.13.01zm-13.94-8.91 13.75 7.73 2.28-4.06-13.75-7.73z"/></g><g><path d="m84.48 70.84c-.08 0-.17-.02-.25-.06-.17-.09-.26-.27-.25-.46l1-18.88c.01-.17.11-.33.26-.41s.34-.08.49 0l14.61 8.21c.15.08.25.24.25.41.01.17-.08.34-.22.43l-15.61 10.68c-.08.05-.18.08-.28.08zm1.46-18.55-.91 17.07 14.11-9.64z"/></g><g><path d="m92.79 56.07c-.08 0-.17-.02-.25-.06-.24-.14-.33-.44-.19-.68l17.8-31.66c.13-.24.44-.33.68-.19s.33.44.19.68l-17.8 31.66c-.09.16-.26.25-.43.25z"/></g><g><path d="m84.97 61.08-.49 9.26 7.66-5.23z"/><path d="m84.48 70.84c-.08 0-.17-.02-.25-.06-.17-.09-.26-.27-.25-.46l.49-9.26c.01-.17.11-.33.26-.41s.34-.08.49 0l7.16 4.03c.15.08.25.24.25.41.01.17-.08.34-.22.43l-7.66 5.23c-.07.06-.17.09-.27.09zm.95-8.93-.4 7.45 6.16-4.21z"/></g></g><g><g><path d="m107.52 77.66h8.43v5.08h-8.43z" fill="#fff" transform="matrix(.343 -.939 .939 .343 -1.941 157.623)"/></g><g><path d="m112.68 85.53c-.06 0-.12-.01-.17-.03l-4.77-1.74c-.12-.05-.23-.14-.28-.26-.06-.12-.06-.26-.02-.38l2.89-7.92c.09-.26.38-.39.64-.3l4.77 1.74c.12.05.23.14.28.26.06.12.06.26.02.38l-2.89 7.92c-.07.21-.27.33-.47.33zm-4.13-2.54 3.83 1.4 2.55-6.98-3.83-1.4z"/></g><g><circle cx="103.2" cy="103.57" fill="#ffc378" r="24"/></g><g><path d="m119.11 109.39c-3.21 8.78-12.94 13.3-21.72 10.09-4.18-1.53-7.39-4.52-9.26-8.19-2.08-4.05-2.52-8.92-.84-13.53 3.21-8.79 12.94-13.31 21.73-10.1 4.25 1.55 7.49 4.63 9.36 8.38 1.99 4.02 2.39 8.81.73 13.35z" fill="#fff"/></g><g><path d="m125.74 111.81c-4.55 12.44-18.33 18.85-30.78 14.3-5.93-2.17-10.48-6.43-13.14-11.65l42.86-21.6c2.83 5.71 3.41 12.51 1.06 18.95z" fill="#ffab41"/></g><g><path d="m103.17 128.07c-2.79 0-5.62-.48-8.38-1.49-12.3-4.5-18.88-17.81-14.98-30.3.08-.26.36-.41.63-.33.26.08.41.36.33.63-3.74 11.98 2.57 24.75 14.37 29.06 5.9 2.16 12.28 1.88 17.97-.76 5.69-2.65 10.01-7.35 12.17-13.25 2.15-5.9 1.88-12.28-.76-17.97-2.65-5.69-7.35-10.01-13.25-12.17-9.85-3.6-21.01-.18-27.13 8.32-.16.22-.48.27-.7.11s-.28-.47-.11-.7c6.38-8.86 18.02-12.43 28.29-8.68 6.15 2.25 11.05 6.75 13.81 12.69s3.04 12.59.79 18.73c-3.64 9.94-13.05 16.11-23.05 16.11z"/></g><g><path d="m119.11 109.39c-3.21 8.78-12.94 13.3-21.72 10.09-4.18-1.53-7.39-4.52-9.26-8.19l30.25-15.24c1.99 4.01 2.39 8.8.73 13.34z" fill="#fadfcb"/></g><g><path d="m103.21 121.02c-2.02 0-4.04-.36-6-1.07-4.38-1.6-7.87-4.81-9.83-9.03s-2.16-8.96-.56-13.33 4.81-7.86 9.03-9.83c4.22-1.96 8.96-2.16 13.33-.56 4.38 1.6 7.87 4.81 9.83 9.03s2.16 8.96.56 13.33c-1.6 4.38-4.81 7.87-9.03 9.83-2.33 1.08-4.83 1.63-7.33 1.63zm-.02-33.9c-2.36 0-4.71.52-6.92 1.54-3.98 1.85-7 5.14-8.51 9.26s-1.32 8.59.53 12.57 5.14 7 9.26 8.51 8.59 1.32 12.57-.53 7-5.14 8.51-9.26 1.32-8.59-.53-12.57-5.14-7-9.26-8.51c-1.84-.67-3.75-1.01-5.65-1.01z"/></g><g><g><path d="m108.34 90c-.06 0-.12-.01-.17-.03-.26-.09-.39-.38-.3-.64l.67-1.84c.09-.26.38-.39.64-.3s.39.38.3.64l-.67 1.84c-.07.21-.27.33-.47.33z"/></g><g><path d="m97.39 119.98c-.06 0-.12-.01-.17-.03-.26-.09-.39-.38-.3-.64l.67-1.84c.09-.26.38-.39.64-.3s.39.38.3.64l-.67 1.84c-.08.2-.27.33-.47.33z"/></g></g><g><g><path d="m89.13 98.93c-.06 0-.12-.01-.17-.03l-1.84-.67c-.26-.09-.39-.38-.3-.64s.38-.39.64-.3l1.84.67c.26.09.39.38.3.64-.07.2-.26.33-.47.33z"/></g><g><path d="m119.11 109.88c-.06 0-.12-.01-.17-.03l-1.84-.67c-.26-.09-.39-.38-.3-.64s.38-.39.64-.3l1.84.67c.26.09.39.38.3.64-.08.21-.27.33-.47.33z"/></g></g><g><g><path d="m96.89 90.49c-.19 0-.37-.11-.45-.29l-.83-1.78c-.12-.25-.01-.55.24-.66.25-.12.55-.01.66.24l.83 1.78c.12.25.01.55-.24.66-.07.03-.14.05-.21.05z"/></g><g><path d="m110.34 119.43c-.19 0-.37-.11-.45-.29l-.83-1.78c-.12-.25-.01-.55.24-.66s.55-.01.66.24l.83 1.78c.12.25.01.55-.24.66-.07.04-.14.05-.21.05z"/></g></g><g><g><path d="m87.84 111.21c-.19 0-.37-.11-.45-.29-.12-.25-.01-.55.24-.66l1.78-.83c.25-.11.55-.01.66.24.12.25.01.55-.24.66l-1.78.83c-.07.03-.14.05-.21.05z"/></g><g><path d="m116.78 97.76c-.19 0-.37-.11-.45-.29-.12-.25-.01-.55.24-.66l1.78-.83c.25-.11.55-.01.66.24.12.25.01.55-.24.66l-1.78.83c-.07.03-.14.05-.21.05z"/></g></g><g><path d="m118.84 77.63v.01c-.44 1.19-1.76 1.81-2.96 1.37l-6.54-2.39c-1.21-.44-1.82-1.76-1.38-2.95v-.01c.44-1.19 1.76-1.82 2.97-1.38l6.54 2.39c1.2.44 1.81 1.77 1.37 2.96z" fill="#ff7d83"/></g><g><path d="m111.6 77.45-2.26-.83c-1.2-.44-1.82-1.76-1.38-2.95v-.01c.44-1.2 1.76-1.83 2.97-1.39l2.26.83c-1.21-.44-2.54.18-2.98 1.38v.01c-.43 1.2.18 2.52 1.39 2.96z" fill="#ff5671"/></g><g><path d="m116.68 79.66c-.33 0-.66-.06-.97-.17l-6.54-2.39c-1.46-.53-2.21-2.15-1.68-3.6.26-.72.78-1.28 1.46-1.59.68-.32 1.44-.35 2.15-.09l6.54 2.39c1.46.53 2.21 2.15 1.68 3.61v.01c-.26.71-.77 1.27-1.45 1.58-.39.16-.79.25-1.19.25zm-6.55-7.02c-.26 0-.52.06-.76.17-.44.2-.77.57-.94 1.02-.34.94.14 1.98 1.08 2.32l6.54 2.39c.46.17.95.15 1.39-.05s.77-.56.93-1.01v-.01c.34-.94-.14-1.98-1.08-2.32l-6.54-2.39c-.2-.08-.41-.12-.62-.12z"/></g><g><path d="m107.43 113.18c-.19 0-.37-.11-.45-.29l-4.23-9.11c-.06-.12-.06-.26-.02-.38l3.87-10.6c.09-.26.38-.39.64-.3s.39.38.3.64l-3.8 10.4 4.15 8.92c.12.25.01.55-.24.66-.07.05-.15.06-.22.06z"/></g><g><circle cx="103.2" cy="103.57" r="2.24"/></g><g><path d="m89.44 105.3c-.26 0-.47-.2-.5-.46-.02-.27.18-.52.45-.54l13.76-1.23c.27-.02.52.18.54.45s-.18.52-.45.54l-13.76 1.23c-.01.01-.02.01-.04.01z"/></g></g></g><g><g><g><g><g><path d="m115.27 60.38c-1.34-.1-2.35-1.27-2.25-2.6s1.26-2.33 2.6-2.24c1.34.1 2.35 1.26 2.25 2.59-.09 1.34-1.26 2.34-2.6 2.25zm.27-3.72c-.72-.05-1.35.48-1.4 1.2s.49 1.35 1.21 1.4 1.35-.49 1.4-1.21-.49-1.34-1.21-1.39z"/></g></g></g><g><g><g><path d="m128.6 65.26c-.06.77-.72 1.34-1.49 1.29-.76-.06-1.34-.72-1.29-1.49.06-.75.73-1.33 1.49-1.28.77.06 1.35.73 1.29 1.48z"/></g></g></g><g><g><g><path d="m127.51 81.69c-.06.77-.72 1.34-1.49 1.29-.76-.06-1.34-.72-1.29-1.49.06-.75.73-1.33 1.49-1.28.78.05 1.35.72 1.29 1.48z"/></g></g></g></g><g><g><g><g><path d="m122.63 46.74c-1.34-.1-2.35-1.27-2.25-2.6s1.26-2.33 2.6-2.24c1.34.1 2.35 1.26 2.25 2.59-.09 1.34-1.26 2.35-2.6 2.25zm.27-3.72c-.72-.05-1.35.48-1.4 1.2s.49 1.35 1.21 1.4 1.35-.49 1.4-1.21c.05-.71-.49-1.33-1.21-1.39z"/></g></g></g><g><g><g><path d="m124.73 29.51c-.06.77-.72 1.34-1.49 1.29-.76-.06-1.34-.72-1.29-1.49.06-.75.73-1.33 1.49-1.28.77.06 1.34.73 1.29 1.48z"/></g></g></g></g><g><g><g><path d="m4.89 116.43c-.98-.92-1.02-2.46-.1-3.44.92-.97 2.45-1.01 3.43-.09s1.02 2.46.11 3.43c-.92.97-2.46 1.02-3.44.1zm2.56-2.72c-.52-.49-1.35-.47-1.84.05s-.47 1.35.05 1.85c.52.49 1.35.47 1.85-.06.49-.52.46-1.34-.06-1.84z"/></g></g></g><g><g><g><path d="m15.55 128.38c-.53.56-1.41.59-1.97.06-.56-.52-.59-1.41-.06-1.97.52-.55 1.41-.58 1.96-.05.57.52.59 1.4.07 1.96z"/></g></g></g></g><g><g><g><path d="m18.33 3.46c1.19-.62 2.66-.16 3.28 1.03.62 1.18.15 2.65-1.03 3.27-1.19.62-2.66.16-3.28-1.02s-.16-2.66 1.03-3.28zm1.73 3.31c.64-.33.89-1.12.56-1.75-.33-.64-1.12-.89-1.76-.55s-.89 1.13-.55 1.76c.32.63 1.11.87 1.75.54z"/></g></g></g><g><g><g><path d="m3.56 9.63c-.36-.69-.1-1.52.58-1.88.68-.35 1.52-.1 1.88.59.35.67.09 1.52-.59 1.87-.68.36-1.52.09-1.87-.58z"/></g></g></g></g></svg>